<?xml version="1.0" encoding="UTF-8" standalone="no"?>
<!DOCTYPE svg PUBLIC "-//W3C//DTD SVG 20010904//EN"
              "http://www.w3.org/TR/2001/REC-SVG-20010904/DTD/svg10.dtd">

<svg xmlns="http://www.w3.org/2000/svg"
     width="5.55556in" height="5.55556in"
     viewBox="0 0 400 400">
  <path id="g4"
        fill="#33ba51" stroke="#33ba51" stroke-width="1"
        d="M 252.00,267.36
           C 232.20,273.70 236.56,300.06 254.00,301.80
             275.64,303.97 278.85,269.38 257.00,267.36
             254.97,266.99 253.95,267.23 252.00,267.36 Z" />
  <path id="lb3"
        fill="#16a9bb" stroke="#16a9bb" stroke-width="1"
        d="M 238.00,234.65
           C 232.83,236.82 228.86,240.07 228.20,246.00
             227.12,255.66 236.94,263.18 246.00,260.35
             262.52,255.20 257.14,230.75 238.00,234.65 Z" />
  <path id="b6"
        fill="#293b9f" stroke="#293b9f" stroke-width="1"
        d="M 302.02,174.74
           C 290.85,180.89 297.46,193.20 307.00,191.76
             314.53,190.62 317.56,181.57 311.77,176.43
             308.72,173.72 305.69,173.88 302.02,174.74 Z" />
  <path id="b5"
        fill="#293b9f" stroke="#293b9f" stroke-width="1"
        d="M 318.00,81.65
           C 304.80,87.35 312.89,102.73 324.00,99.35
             331.63,97.02 332.28,88.57 328.49,84.39
             325.56,81.17 321.97,80.93 318.00,81.65 Z" />
  <path id="g3"
        fill="#33ba51" stroke="#33ba51" stroke-width="1"
        d="M 276.00,104.28
           C 249.34,110.83 254.05,146.37 279.00,147.91
             303.06,149.39 312.49,117.71 291.00,106.44
             288.43,105.09 284.90,104.27 282.00,104.28
             279.63,103.95 278.30,104.15 276.00,104.28 Z" />
  <path id="lb2"
        fill="#16a9bb" stroke="#16a9bb" stroke-width="1"
        d="M 225.00,144.57
           C 210.45,150.32 218.14,168.97 231.00,165.43
             239.50,163.08 241.07,152.62 235.72,147.28
             232.56,144.11 229.13,143.92 225.00,144.57 Z" />
  <path id="b4"
        fill="#293b9f" stroke="#293b9f" stroke-width="1"
        d="M 249.00,40.57
           C 235.93,45.81 243.57,60.60 255.00,57.43
             262.11,55.45 263.66,47.74 259.57,43.28
             256.62,40.05 252.98,39.94 249.00,40.57 Z" />
  <path id="b3"
        fill="#293b9f" stroke="#293b9f" stroke-width="1"
        d="M 223.02,13.74
           C 211.91,19.86 217.95,33.28 228.00,31.76
             235.84,30.57 238.63,20.63 232.77,15.43
             229.72,12.72 226.69,12.88 223.02,13.74 Z" />
  <path id="dg3"
        fill="#27b07c" stroke="#27b07c" stroke-width="1"
        d="M 197.00,129.44
           C 186.30,131.44 176.93,135.25 169.09,143.09
             143.36,168.82 154.19,213.73 189.00,224.65
             196.06,226.87 203.65,227.72 211.00,226.56
             218.08,225.45 224.98,223.02 231.00,219.13
             256.48,202.68 260.38,166.06 239.83,144.04
             229.05,132.49 212.45,127.46 197.00,129.44 Z" />
  <path id="g2"
        fill="#33ba51" stroke="#33ba51" stroke-width="1"
        d="M 147.00,189.31
           C 125.43,196.25 130.73,223.56 150.00,224.90
             174.77,226.64 176.93,190.77 153.00,189.31
             150.72,188.94 149.22,189.17 147.00,189.31 Z" />
  <path id="dg2"
        fill="#27b07c" stroke="#27b07c" stroke-width="1"
        d="M 147.00,29.28
           C 120.57,35.77 124.74,72.35 150.00,73.91
             179.97,75.76 182.47,30.91 153.00,29.28
             150.63,28.95 149.30,29.15 147.00,29.28 Z" />
  <path id="b2"
        fill="#293b9f" stroke="#293b9f" stroke-width="1"
        d="M 123.02,68.74
           C 111.91,74.86 117.95,88.28 128.00,86.76
             135.84,85.57 138.63,75.63 132.77,70.43
             129.72,67.72 126.69,67.88 123.02,68.74 Z" />
  <path id="g1"
        fill="#33ba51" stroke="#33ba51" stroke-width="1"
        d="M 118.00,114.65
           C 113.17,116.68 109.60,119.64 108.39,125.00
             106.11,135.16 116.00,144.47 126.00,141.35
             142.31,136.26 137.52,110.67 118.00,114.65 Z" />
  <path id="lb1"
        fill="#16a9bb" stroke="#16a9bb" stroke-width="1"
        d="M 91.00,134.31
           C 69.51,141.23 74.49,169.54 94.00,170.90
             118.96,172.65 120.91,135.77 97.00,134.31
             94.72,133.94 93.22,134.17 91.00,134.31 Z" />
  <path id="b1"
        fill="#293b9f" stroke="#293b9f" stroke-width="1"
        d="M 67.00,120.57
           C 51.96,126.49 61.22,142.67 73.00,139.43
             80.40,137.39 83.59,128.91 77.77,123.28
             74.53,120.13 71.19,119.91 67.00,120.57 Z" />
  <path id="dg1"
        fill="#27b07c" stroke="#27b07c" stroke-width="1"
        d="M 92.00,186.47
           C 66.07,192.80 74.10,231.47 100.00,226.53
             116.68,223.35 121.26,201.31 108.82,190.53
             104.02,186.37 98.05,185.64 92.00,186.47 Z" />
  <path id="trunk"
        fill="#293b9f" stroke="#293b9f" stroke-width="1"
        d="M 200.01,392.01
           C 200.01,392.01 200.01,337.00 200.01,337.00
             200.01,337.00 199.03,336.03 199.02,336.03
             199.01,336.03 198.01,334.97 198.01,334.97
             198.01,334.97 196.99,334.00 196.99,334.00
             196.99,334.00 195.96,333.02 195.96,333.02
             195.96,333.02 194.86,332.06 194.86,332.06
             194.86,332.06 187.98,326.02 187.98,326.02
             187.98,326.02 175.95,314.98 175.95,314.98
             175.95,314.98 122.73,262.36 122.73,262.36
             122.73,262.36 122.81,234.88 122.81,234.88
             122.81,234.88 95.56,207.44 95.56,207.44
             95.56,207.44 95.06,203.88 98.44,204.81
             101.81,205.75 122.31,227.88 122.31,227.88
             122.31,227.88 121.97,182.03 121.97,182.03
             121.97,182.03 121.98,180.00 121.98,180.00
             121.98,180.00 76.88,138.12 76.88,138.12
             76.88,138.12 75.44,134.25 79.19,135.25
             79.25,135.31 96.25,151.19 96.19,151.19
             96.12,151.19 122.38,126.19 122.38,126.19
             122.38,126.19 124.06,126.69 124.25,127.88
             124.31,128.00 99.75,153.88 99.75,153.88
             99.75,153.88 126.19,178.81 126.19,178.81
             126.19,178.81 127.00,259.06 127.00,259.06
             127.00,259.06 148.75,282.75 148.75,282.75
             148.75,282.75 173.88,258.50 173.88,258.50
             173.88,258.50 173.88,235.75 173.88,235.75
             173.88,235.75 148.12,208.00 148.12,208.00
             148.12,208.00 147.62,204.25 151.25,205.75
             151.25,205.75 174.88,230.50 174.88,230.50
             174.88,230.50 174.62,204.50 174.62,204.50
             174.62,204.50 176.50,203.38 177.75,204.25
             179.00,205.12 178.25,259.62 178.25,259.62
             178.25,259.62 151.62,285.12 151.62,285.12
             151.62,285.12 199.38,330.00 199.38,330.00
             199.38,330.00 200.00,287.50 200.00,287.50
             200.00,287.50 186.62,273.75 186.62,273.75
             186.62,273.75 186.12,269.88 189.62,271.50
             190.12,271.88 200.00,282.04 200.00,282.04
             200.00,282.04 200.02,182.11 200.02,182.11
             200.02,182.11 147.82,130.91 147.82,130.91
             147.82,130.91 147.64,103.27 147.64,103.27
             147.64,103.27 131.64,84.91 131.64,84.91
             131.64,84.91 130.55,81.45 134.55,82.55
             135.09,82.73 148.00,98.18 148.00,98.18
             148.00,98.18 148.55,49.64 148.55,49.64
             148.55,49.64 149.09,46.00 152.18,49.64
             152.36,49.82 150.91,128.00 150.91,128.00
             150.91,128.00 175.73,151.64 175.73,151.64
             175.73,151.64 199.36,128.73 199.36,128.73
             199.36,128.73 175.27,103.64 175.27,103.64
             175.27,103.64 174.00,99.36 178.45,100.82
             178.91,100.73 201.45,124.45 201.45,124.45
             201.45,124.45 225.09,99.82 225.09,99.82
             225.09,99.82 225.36,27.91 225.36,27.91
             225.36,27.91 226.00,26.00 228.18,27.91
             228.36,28.27 228.18,69.36 228.18,69.36
             228.18,69.36 246.00,54.45 246.18,54.73
             246.36,55.00 247.82,54.45 247.91,56.27
             248.09,56.45 229.27,73.09 229.27,73.09
             229.27,73.09 229.18,102.55 229.18,102.55
             229.18,102.55 179.36,154.00 179.36,154.00
             179.36,154.00 202.36,177.09 202.36,177.09
             202.36,177.09 226.36,152.09 226.36,152.09
             226.36,152.09 229.00,150.91 229.55,153.45
             230.09,156.00 204.94,180.31 204.94,180.31
             204.94,180.31 203.62,282.88 203.62,282.88
             203.62,282.88 239.96,247.39 239.96,247.39
             239.96,247.39 216.44,223.62 216.44,223.62
             216.44,223.62 216.69,221.29 219.13,222.07
             219.26,222.44 241.98,245.02 241.98,245.02
             241.98,245.02 278.00,209.25 278.00,209.25
             278.00,209.25 278.00,180.88 278.00,180.88
             278.00,180.88 256.12,156.00 256.12,156.00
             256.12,156.00 255.12,152.38 259.00,153.12
             259.50,153.25 279.00,175.38 279.00,175.38
             279.00,175.38 279.25,126.50 279.25,126.50
             279.25,126.50 314.00,93.25 314.00,93.25
             314.00,93.25 317.50,93.88 316.38,96.75
             316.25,96.88 282.75,128.25 282.75,128.25
             282.75,128.25 282.38,149.88 282.38,149.75
             282.38,149.62 306.38,126.00 306.38,126.00
             306.38,126.00 308.70,125.57 308.83,128.65
             308.83,128.90 282.22,155.78 282.22,155.78
             282.22,155.78 281.91,205.30 281.91,205.30
             281.91,205.30 297.94,188.28 298.57,187.65
             300.26,187.61 301.43,188.17 301.00,189.87
             300.57,191.57 203.98,287.00 203.98,287.00
             203.98,287.00 203.76,330.19 203.76,330.19
             203.76,330.19 253.11,285.07 253.04,285.07
             254.38,284.78 256.69,286.29 256.00,288.04
             256.07,288.04 204.45,335.82 204.45,335.82
             204.45,335.82 204.73,392.27 204.36,392.27" />
</svg>
